# xmcd CD database file
#
# Track frame offsets:
#	150
#	13385
#	27420
#	41145
#	54630
#	67585
#	77685
#	89585
#	101995
#	114040
#	125600
#	139470
#	152425
#	166350
#
# Disc length: 2398 seconds
#
# Revision: 3
# Processed by: cddbd v1.5.2PL0 Copyright (c) Steve Scherf et al.
# Submitted via: CDex 1.51
#
DISCID=bb095c0e
DTITLE=Billie Holiday - The Man I Love
DYEAR=1995
DGENRE=Jazz
TTITLE0=I Must Have That Man
TTITLE1=Mean To Me
TTITLE2=I'll Never Be The Same
TTITLE3=Foolin' Myself
TTITLE4=A Sailboat In The Moonlight
TTITLE5=Tav'lin' All Alone
TTITLE6=He's Funny That Way
TTITLE7=I Can't Believe That You're In Love With Me
TTITLE8=Back In Your Own Backyard
TTITLE9=SAy It With A Kiss
TTITLE10=The Man I Love
TTITLE11=Laughing At Life
TTITLE12=Time On My Hands
TTITLE13=All Of Me
EXTD=YEAR: 1995
EXTT0=
EXTT1=
EXTT2=
EXTT3=
EXTT4=
EXTT5=
EXTT6=
EXTT7=
EXTT8=
EXTT9=
EXTT10=
EXTT11=
EXTT12=
EXTT13=
PLAYORDER=
